<?xml version="1.0" encoding="UTF-8" standalone="no"?>
<svg
   xmlns:dc="http://purl.org/dc/elements/1.1/"
   xmlns:cc="http://creativecommons.org/ns#"
   xmlns:rdf="http://www.w3.org/1999/02/22-rdf-syntax-ns#"
   xmlns:svg="http://www.w3.org/2000/svg"
   xmlns="http://www.w3.org/2000/svg"
   xmlns:sodipodi="http://sodipodi.sourceforge.net/DTD/sodipodi-0.dtd"
   xmlns:inkscape="http://www.inkscape.org/namespaces/inkscape"
   sodipodi:docname="logo.svg"
   inkscape:version="1.0 (6e3e5246a0, 2020-05-07)"
   id="svg8"
   version="1.1"
   viewBox="0 0 115.31082 37.072872"
   height="37.072872mm"
   width="115.31082mm">
  <defs
     id="defs2">
    <rect
       id="rect905"
       height="107.50508"
       width="292.65063"
       y="66.255348"
       x="47.960526" />
    <rect
       id="rect835"
       height="114.92407"
       width="259.75046"
       y="90.950127"
       x="63.669079" />
  </defs>
  <sodipodi:namedview
     inkscape:window-maximized="1"
     inkscape:window-y="22"
     inkscape:window-x="0"
     inkscape:window-height="709"
     inkscape:window-width="1366"
     showguides="false"
     showgrid="false"
     inkscape:document-rotation="0"
     inkscape:current-layer="text903"
     inkscape:document-units="mm"
     inkscape:cy="96.038209"
     inkscape:cx="168.26351"
     inkscape:zoom="1.0362137"
     inkscape:pageshadow="2"
     inkscape:pageopacity="0.0"
     borderopacity="1.0"
     bordercolor="#666666"
     pagecolor="#ffffff"
     id="base" />
  <metadata
     id="metadata5">
    <rdf:RDF>
      <cc:Work
         rdf:about="">
        <dc:format>image/svg+xml</dc:format>
        <dc:type
           rdf:resource="http://purl.org/dc/dcmitype/StillImage" />
        <dc:title></dc:title>
      </cc:Work>
    </rdf:RDF>
  </metadata>
  <g
     transform="translate(-47.651485,-97.796098)"
     id="layer1"
     inkscape:groupmode="layer"
     inkscape:label="Layer 1">
    <g
       style="font-size:24.4765px;line-height:1.25;font-family:'SF Pro Display';-inkscape-font-specification:'SF Pro Display';text-align:center;letter-spacing:0px;word-spacing:0px;text-anchor:middle;white-space:pre;shape-inside:url(#rect905)"
       id="text903"
       transform="matrix(1.441293,0,0,1.441293,-169.7571,-4.8326781)"
       aria-label="LearИ.">
      <path
         id="path962"
         style="font-style:normal;font-variant:normal;font-weight:bold;font-stretch:normal;font-size:24.4765px;font-family:'Go Mono';-inkscape-font-specification:'Go Mono, Normal';font-variant-ligatures:normal;font-variant-caps:normal;font-variant-numeric:normal;font-variant-east-asian:normal"
         d="m 150.84274,88.894142 v -2.067595 h 2.35443 V 73.26169 h -2.35443 v -2.055644 h 8.25842 v 2.055644 h -2.35442 v 13.42144 h 5.68887 v -3.681036 h 1.91223 v 5.892048 z" />
      <path
         id="path964"
         style="font-style:normal;font-variant:normal;font-weight:bold;font-stretch:normal;font-size:24.4765px;font-family:'Go Mono';-inkscape-font-specification:'Go Mono, Normal';font-variant-ligatures:normal;font-variant-caps:normal;font-variant-numeric:normal;font-variant-east-asian:normal"
         d="m 178.89271,85.858482 v 2.426137 q -2.89224,0.908308 -5.61717,0.908308 -3.58542,0 -5.59326,-1.792712 -2.00784,-1.780761 -2.00784,-4.900081 0,-3.083465 1.92418,-4.98374 1.91223,-1.900275 5.00764,-1.900275 2.94005,0 4.55349,1.792712 1.61344,1.780761 1.61344,5.043497 v 0.693183 h -9.40576 q 0.17927,1.063676 0.45415,1.613441 1.06368,2.1154 4.13519,2.1154 1.98394,0 4.93594,-1.01587 z m -9.45357,-4.780566 h 5.74863 q -0.0239,-1.422219 -0.60952,-2.258818 -0.75294,-1.087579 -2.12735,-1.087579 -1.51783,0 -2.35443,1.171239 -0.57367,0.812696 -0.65733,2.175158 z" />
      <path
         id="path966"
         style="font-style:normal;font-variant:normal;font-weight:bold;font-stretch:normal;font-size:24.4765px;font-family:'Go Mono';-inkscape-font-specification:'Go Mono, Normal';font-variant-ligatures:normal;font-variant-caps:normal;font-variant-numeric:normal;font-variant-east-asian:normal"
         d="m 181.52202,79.655697 v -3.023708 q 3.04761,-1.003919 5.67692,-1.003919 2.76078,0 3.96787,0.812696 1.2071,0.812697 1.2071,2.736875 v 7.648906 h 1.3266 v 2.067595 h -4.38617 l -0.47805,-1.254899 q -1.85247,1.553684 -4.11129,1.553684 -1.84052,0 -2.96395,-1.027822 -1.12343,-1.01587 -1.12343,-2.689068 0,-2.211012 1.82856,-3.382251 1.82857,-1.159287 5.29448,-1.159287 h 1.07563 v -1.35051 q 0,-1.099531 -0.49001,-1.505879 -0.49001,-0.418299 -1.76881,-0.418299 -1.51783,0 -2.74883,0.621473 l -0.23903,1.374413 z m 7.31427,5.748631 v -2.70102 h -0.53782 q -1.82856,0 -2.94005,0.705134 -1.11148,0.705133 -1.11148,1.864421 0,1.589538 1.68515,1.589538 1.52978,0 2.9042,-1.458073 z" />
      <path
         id="path968"
         style="font-style:normal;font-variant:normal;font-weight:bold;font-stretch:normal;font-size:24.4765px;font-family:'Go Mono';-inkscape-font-specification:'Go Mono, Normal';font-variant-ligatures:normal;font-variant-caps:normal;font-variant-numeric:normal;font-variant-east-asian:normal"
         d="m 194.95541,88.894142 v -2.067595 h 2.952 v -8.844048 h -2.952 v -2.067595 h 6.48962 v 1.924178 q 0.77684,-0.980016 1.52978,-1.481976 1.08758,-0.729036 2.40224,-0.729036 1.43417,0 2.94004,0.645376 v 4.21885 h -2.05564 l -0.29879,-1.816615 q -0.65732,-0.358542 -1.3027,-0.358542 -1.43417,0 -3.21493,2.211012 v 6.298396 h 3.8364 v 2.067595 z" />
      <path
         sodipodi:nodetypes="ccccccccccccccccccccccc"
         id="path970"
         style="font-style:normal;font-variant:normal;font-weight:bold;font-stretch:normal;font-size:24.4765px;font-family:'Go Mono';-inkscape-font-specification:'Go Mono, Normal';font-variant-ligatures:normal;font-variant-caps:normal;font-variant-numeric:normal;font-variant-east-asian:normal;stroke-width:0.986663"
         d="M 209.45248,88.894262 V 86.82923 h 1.16492 v -9.147738 h -1.16492 v -2.053096 h 5.47511 v 2.053096 h -1.04842 v 6.438128 l 4.50823,-8.491224 h 4.42669 v 2.053096 h -1.16491 v 9.147738 h 1.16491 v 2.065032 h -5.47511 V 86.82923 h 1.04842 v -6.426192 l -4.50823,8.491224 z" />
      <path
         id="path972"
         style="font-style:normal;font-variant:normal;font-weight:bold;font-stretch:normal;font-size:24.4765px;font-family:'Go Mono';-inkscape-font-specification:'Go Mono, Normal';font-variant-ligatures:normal;font-variant-caps:normal;font-variant-numeric:normal;font-variant-east-asian:normal;fill:#ff304f;fill-opacity:1"
         d="m 226.48559,96.927999 v -4.362267 h 4.36227 v 4.362267 z" />
    </g>
  </g>
</svg>
